<svg width="1180" height="610" viewBox="0 0 1180 610" xmlns="http://www.w3.org/2000/svg" xmlns:xlink="http://www.w3.org/1999/xlink" role="img" aria-label="Artem — Frontend Engineer"><defs>
    <linearGradient id="accentGrad" x1="0%" y1="0%" x2="100%" y2="100%">
      <stop offset="0%" stop-color="#2563EB"/>
      <stop offset="50%" stop-color="#06B6D4"/>
      <stop offset="100%" stop-color="#10B981"/>
      <animate attributeName="x1" values="0%;100%;0%" dur="8s" repeatCount="indefinite"/>
      <animate attributeName="x2" values="100%;0%;100%" dur="8s" repeatCount="indefinite"/>
    </linearGradient>

    <linearGradient id="asciiGrad" x1="0%" y1="0%" x2="100%" y2="100%">
      <stop offset="0%" stop-color="#2563EB"/>
      <stop offset="50%" stop-color="#06B6D4"/>
      <stop offset="100%" stop-color="#2563EB"/>
      <animateTransform attributeName="gradientTransform" type="rotate"
        values="0 0.5 0.5;360 0.5 0.5" dur="10s" repeatCount="indefinite"/>
    </linearGradient>

    <linearGradient id="borderGrad" x1="0%" y1="0%" x2="100%" y2="0%">
      <stop offset="0%" stop-color="#2563EB" stop-opacity="0"/>
      <stop offset="50%" stop-color="#06B6D4" stop-opacity="0.9"/>
      <stop offset="100%" stop-color="#10B981" stop-opacity="0"/>
      <animate attributeName="x1" values="-20%;120%" dur="5s" repeatCount="indefinite"/>
      <animate attributeName="x2" values="0%;140%" dur="5s" repeatCount="indefinite"/>
    </linearGradient>

    <radialGradient id="bgGlow1" cx="15%" cy="20%" r="55%">
      <stop offset="0%" stop-color="#DBEAFE" stop-opacity="0.55"/>
      <stop offset="100%" stop-color="#DBEAFE" stop-opacity="0"/>
    </radialGradient>
    <radialGradient id="bgGlow2" cx="85%" cy="15%" r="50%">
      <stop offset="0%" stop-color="#CFFAFE" stop-opacity="0.5"/>
      <stop offset="100%" stop-color="#CFFAFE" stop-opacity="0"/>
    </radialGradient>
    <radialGradient id="bgGlow3" cx="70%" cy="90%" r="55%">
      <stop offset="0%" stop-color="#D1FAE5" stop-opacity="0.45"/>
      <stop offset="100%" stop-color="#D1FAE5" stop-opacity="0"/>
    </radialGradient>

    <radialGradient id="pillGlow" cx="50%" cy="50%" r="50%">
      <stop offset="0%" stop-color="#06B6D4" stop-opacity="0.35"/>
      <stop offset="100%" stop-color="#06B6D4" stop-opacity="0"/>
    </radialGradient>

    <linearGradient id="glassSheen" x1="0%" y1="0%" x2="0%" y2="100%">
      <stop offset="0%" stop-color="#ffffff" stop-opacity="0.5"/>
      <stop offset="35%" stop-color="#ffffff" stop-opacity="0"/>
    </linearGradient>

    <filter id="softBlur" x="-50%" y="-50%" width="200%" height="200%">
      <feGaussianBlur stdDeviation="18"/>
    </filter>
    <filter id="glow" x="-60%" y="-60%" width="220%" height="220%">
      <feGaussianBlur stdDeviation="3.2" result="b"/>
      <feMerge>
        <feMergeNode in="b"/>
        <feMergeNode in="SourceGraphic"/>
      </feMerge>
    </filter>
    <filter id="tinyGlow" x="-80%" y="-80%" width="260%" height="260%">
      <feGaussianBlur stdDeviation="1.4" result="b"/>
      <feMerge><feMergeNode in="b"/><feMergeNode in="SourceGraphic"/></feMerge>
    </filter>

    <filter id="noise">
      <feTurbulence type="fractalNoise" baseFrequency="0.85" numOctaves="2" stitchTiles="stitch" result="n"/>
      <feColorMatrix in="n" type="matrix" values="0 0 0 0 1  0 0 0 0 1  0 0 0 0 1  0 0 0 0.02 0"/>
    </filter>

    <clipPath id="cardClip"><rect x="0" y="0" width="1180" height="610" rx="28"/></clipPath>
    <clipPath id="leftClip"><rect x="22" y="40" width="410" height="530" rx="18"/></clipPath>
<clipPath id="typeClip0"><rect x="0" y="0" width="0" height="34"><animate id="tc0a" attributeName="width" from="0" to="230.1" dur="0.94s" begin="0s; tc4e.end" fill="freeze"/><animate id="tc0e" attributeName="width" from="230.1" to="0" dur="0.35s" begin="tc0a.end+1.15s" fill="freeze"/></rect></clipPath><clipPath id="typeClip1"><rect x="0" y="0" width="0" height="34"><animate id="tc1a" attributeName="width" from="0" to="270.0" dur="1.10s" begin="tc0e.end" fill="freeze"/><animate id="tc1e" attributeName="width" from="270.0" to="0" dur="0.35s" begin="tc1a.end+1.15s" fill="freeze"/></rect></clipPath><clipPath id="typeClip2"><rect x="0" y="0" width="0" height="34"><animate id="tc2a" attributeName="width" from="0" to="309.9" dur="1.26s" begin="tc1e.end" fill="freeze"/><animate id="tc2e" attributeName="width" from="309.9" to="0" dur="0.35s" begin="tc2a.end+1.15s" fill="freeze"/></rect></clipPath><clipPath id="typeClip3"><rect x="0" y="0" width="0" height="34"><animate id="tc3a" attributeName="width" from="0" to="150.3" dur="0.60s" begin="tc2e.end" fill="freeze"/><animate id="tc3e" attributeName="width" from="150.3" to="0" dur="0.35s" begin="tc3a.end+1.15s" fill="freeze"/></rect></clipPath><clipPath id="typeClip4"><rect x="0" y="0" width="0" height="34"><animate id="tc4a" attributeName="width" from="0" to="176.9" dur="0.71s" begin="tc3e.end" fill="freeze"/><animate id="tc4e" attributeName="width" from="176.9" to="0" dur="0.35s" begin="tc4a.end+1.15s" fill="freeze"/></rect></clipPath></defs><g clip-path="url(#cardClip)"><rect x="0" y="0" width="1180" height="610" fill="#FFFFFF"/><rect x="0" y="0" width="1180" height="610" fill="#F1F5F9" opacity="0.5"/><rect x="0" y="0" width="1180" height="610" fill="url(#bgGlow1)"><animateTransform attributeName="transform" type="translate" values="0 0;6 8;0 0" dur="14s" repeatCount="indefinite"/></rect><rect x="0" y="0" width="1180" height="610" fill="url(#bgGlow2)"><animateTransform attributeName="transform" type="translate" values="0 0;-5 7;0 0" dur="17s" repeatCount="indefinite"/></rect><rect x="0" y="0" width="1180" height="610" fill="url(#bgGlow3)"><animateTransform attributeName="transform" type="translate" values="0 0;5 -6;0 0" dur="20s" repeatCount="indefinite"/></rect><rect x="0" y="0" width="1180" height="610" filter="url(#noise)" opacity="0.35"/><circle cx="535.7" cy="339.1" r="2.00" fill="#06B6D4" opacity="0.31"><animate attributeName="cy" values="339.1;309.9;339.1" dur="9.3s" begin="-3.5s" repeatCount="indefinite"/><animate attributeName="opacity" values="0;0.31;0" dur="9.3s" begin="-3.5s" repeatCount="indefinite"/></circle><circle cx="603.6" cy="379.0" r="1.83" fill="#06B6D4" opacity="0.53"><animate attributeName="cy" values="379.0;354.4;379.0" dur="6.7s" begin="-0.5s" repeatCount="indefinite"/><animate attributeName="opacity" values="0;0.53;0" dur="6.7s" begin="-0.5s" repeatCount="indefinite"/></circle><circle cx="810.5" cy="43.9" r="2.08" fill="#06B6D4" opacity="0.31"><animate attributeName="cy" values="43.9;11.5;43.9" dur="12.8s" begin="-3.7s" repeatCount="indefinite"/><animate attributeName="opacity" values="0;0.31;0" dur="12.8s" begin="-3.7s" repeatCount="indefinite"/></circle><circle cx="37.1" cy="321.2" r="0.88" fill="#06B6D4" opacity="0.41"><animate attributeName="cy" values="321.2;297.9;321.2" dur="7.3s" begin="-0.2s" repeatCount="indefinite"/><animate attributeName="opacity" values="0;0.41;0" dur="7.3s" begin="-0.2s" repeatCount="indefinite"/></circle><circle cx="522.2" cy="500.2" r="1.47" fill="#06B6D4" opacity="0.41"><animate attributeName="cy" values="500.2;471.2;500.2" dur="10.5s" begin="-4.0s" repeatCount="indefinite"/><animate attributeName="opacity" values="0;0.41;0" dur="10.5s" begin="-4.0s" repeatCount="indefinite"/></circle><circle cx="337.1" cy="588.7" r="2.09" fill="#06B6D4" opacity="0.33"><animate attributeName="cy" values="588.7;555.1;588.7" dur="11.9s" begin="-1.9s" repeatCount="indefinite"/><animate attributeName="opacity" values="0;0.33;0" dur="11.9s" begin="-1.9s" repeatCount="indefinite"/></circle><circle cx="349.5" cy="60.0" r="1.80" fill="#06B6D4" opacity="0.59"><animate attributeName="cy" values="60.0;23.4;60.0" dur="8.8s" begin="-2.3s" repeatCount="indefinite"/><animate attributeName="opacity" values="0;0.59;0" dur="8.8s" begin="-2.3s" repeatCount="indefinite"/></circle><circle cx="985.9" cy="20.3" r="1.07" fill="#06B6D4" opacity="0.39"><animate attributeName="cy" values="20.3;-8.0;20.3" dur="12.4s" begin="-5.9s" repeatCount="indefinite"/><animate attributeName="opacity" values="0;0.39;0" dur="12.4s" begin="-5.9s" repeatCount="indefinite"/></circle><circle cx="103.3" cy="378.8" r="1.81" fill="#06B6D4" opacity="0.59"><animate attributeName="cy" values="378.8;358.9;378.8" dur="7.9s" begin="-2.0s" repeatCount="indefinite"/><animate attributeName="opacity" values="0;0.59;0" dur="7.9s" begin="-2.0s" repeatCount="indefinite"/></circle><circle cx="884.2" cy="87.3" r="1.12" fill="#06B6D4" opacity="0.31"><animate attributeName="cy" values="87.3;67.9;87.3" dur="6.7s" begin="-4.8s" repeatCount="indefinite"/><animate attributeName="opacity" values="0;0.31;0" dur="6.7s" begin="-4.8s" repeatCount="indefinite"/></circle><circle cx="657.6" cy="275.0" r="1.05" fill="#06B6D4" opacity="0.29"><animate attributeName="cy" values="275.0;254.2;275.0" dur="11.1s" begin="-3.9s" repeatCount="indefinite"/><animate attributeName="opacity" values="0;0.29;0" dur="11.1s" begin="-3.9s" repeatCount="indefinite"/></circle><circle cx="499.7" cy="141.3" r="1.15" fill="#06B6D4" opacity="0.56"><animate attributeName="cy" values="141.3;105.7;141.3" dur="12.8s" begin="-1.8s" repeatCount="indefinite"/><animate attributeName="opacity" values="0;0.56;0" dur="12.8s" begin="-1.8s" repeatCount="indefinite"/></circle><circle cx="260.2" cy="244.7" r="1.91" fill="#06B6D4" opacity="0.32"><animate attributeName="cy" values="244.7;224.5;244.7" dur="10.5s" begin="-5.9s" repeatCount="indefinite"/><animate attributeName="opacity" values="0;0.32;0" dur="10.5s" begin="-5.9s" repeatCount="indefinite"/></circle><circle cx="314.4" cy="460.4" r="1.23" fill="#06B6D4" opacity="0.45"><animate attributeName="cy" values="460.4;440.8;460.4" dur="8.1s" begin="-0.5s" repeatCount="indefinite"/><animate attributeName="opacity" values="0;0.45;0" dur="8.1s" begin="-0.5s" repeatCount="indefinite"/></circle><circle cx="297.0" cy="362.7" r="1.28" fill="#06B6D4" opacity="0.45"><animate attributeName="cy" values="362.7;323.6;362.7" dur="9.2s" begin="-2.9s" repeatCount="indefinite"/><animate attributeName="opacity" values="0;0.45;0" dur="9.2s" begin="-2.9s" repeatCount="indefinite"/></circle><circle cx="1007.8" cy="124.2" r="1.00" fill="#06B6D4" opacity="0.32"><animate attributeName="cy" values="124.2;88.2;124.2" dur="12.4s" begin="-1.5s" repeatCount="indefinite"/><animate attributeName="opacity" values="0;0.32;0" dur="12.4s" begin="-1.5s" repeatCount="indefinite"/></circle><circle cx="862.9" cy="556.0" r="1.06" fill="#06B6D4" opacity="0.40"><animate attributeName="cy" values="556.0;518.6;556.0" dur="12.7s" begin="-3.6s" repeatCount="indefinite"/><animate attributeName="opacity" values="0;0.40;0" dur="12.7s" begin="-3.6s" repeatCount="indefinite"/></circle><circle cx="138.4" cy="42.1" r="2.05" fill="#06B6D4" opacity="0.54"><animate attributeName="cy" values="42.1;8.6;42.1" dur="7.7s" begin="-1.5s" repeatCount="indefinite"/><animate attributeName="opacity" values="0;0.54;0" dur="7.7s" begin="-1.5s" repeatCount="indefinite"/></circle><circle cx="700.0" cy="187.3" r="1.03" fill="#06B6D4" opacity="0.45"><animate attributeName="cy" values="187.3;167.7;187.3" dur="11.0s" begin="-1.4s" repeatCount="indefinite"/><animate attributeName="opacity" values="0;0.45;0" dur="11.0s" begin="-1.4s" repeatCount="indefinite"/></circle><circle cx="991.7" cy="370.2" r="1.16" fill="#06B6D4" opacity="0.34"><animate attributeName="cy" values="370.2;347.7;370.2" dur="12.4s" begin="-0.1s" repeatCount="indefinite"/><animate attributeName="opacity" values="0;0.34;0" dur="12.4s" begin="-0.1s" repeatCount="indefinite"/></circle><circle cx="528.1" cy="54.5" r="1.03" fill="#06B6D4" opacity="0.38"><animate attributeName="cy" values="54.5;23.9;54.5" dur="8.6s" begin="-0.8s" repeatCount="indefinite"/><animate attributeName="opacity" values="0;0.38;0" dur="8.6s" begin="-0.8s" repeatCount="indefinite"/></circle><circle cx="1035.7" cy="578.9" r="1.65" fill="#06B6D4" opacity="0.26"><animate attributeName="cy" values="578.9;548.0;578.9" dur="10.8s" begin="-0.8s" repeatCount="indefinite"/><animate attributeName="opacity" values="0;0.26;0" dur="10.8s" begin="-0.8s" repeatCount="indefinite"/></circle><g filter="url(#glow)"><rect x="24" y="24" width="408" height="562" rx="20" fill="#F8FAFC" opacity="0.9" stroke="#E2E8F0" stroke-width="1"/></g><rect x="24" y="24" width="408" height="225" rx="20" fill="url(#glassSheen)"/><rect x="24" y="24" width="408" height="562" rx="20" fill="none" stroke="url(#borderGrad)" stroke-width="1.6"/><circle cx="50" cy="52" r="5" fill="#FF5F57" opacity="0.85"/><circle cx="68" cy="52" r="5" fill="#FEBC2E" opacity="0.85"/><circle cx="86" cy="52" r="5" fill="#28C840" opacity="0.85"/><text x="414" y="56" text-anchor="end" font-family="'SF Mono','Fira Code','JetBrains Mono',ui-monospace,Consolas,monospace" font-size="11" fill="#475569">whoami.sh</text><line x1="40" y1="70" x2="416" y2="70" stroke="#E2E8F0" stroke-width="1"/><g transform="translate(0 0)"><animateTransform attributeName="transform" type="translate" values="0 0;0 -6;0 0" dur="6s" repeatCount="indefinite"/><text x="48" y="174.0" font-family="'SF Mono','Fira Code','JetBrains Mono',ui-monospace,Consolas,monospace" font-size="12.5" fill="url(#asciiGrad)" letter-spacing="0" opacity="0">     ┌───────────────────┐<animate attributeName="opacity" from="0" to="1" dur="0.45s" begin="0.35s" fill="freeze"/></text><text x="48" y="192.5" font-family="'SF Mono','Fira Code','JetBrains Mono',ui-monospace,Consolas,monospace" font-size="12.5" fill="url(#asciiGrad)" letter-spacing="0" opacity="0">     │  ▓▓▓▓▓▓▓▓▓▓▓▓▓▓▓  │<animate attributeName="opacity" from="0" to="1" dur="0.45s" begin="0.48s" fill="freeze"/></text><text x="48" y="211.0" font-family="'SF Mono','Fira Code','JetBrains Mono',ui-monospace,Consolas,monospace" font-size="12.5" fill="url(#asciiGrad)" letter-spacing="0" opacity="0">     │ ▓▓░░░░░░░░░░░░░▓▓ │<animate attributeName="opacity" from="0" to="1" dur="0.45s" begin="0.61s" fill="freeze"/></text><text x="48" y="229.5" font-family="'SF Mono','Fira Code','JetBrains Mono',ui-monospace,Consolas,monospace" font-size="12.5" fill="url(#asciiGrad)" letter-spacing="0" opacity="0">     │▓▓░░▓▓▓▓▓▓▓▓▓▓▓░░▓▓│<animate attributeName="opacity" from="0" to="1" dur="0.45s" begin="0.74s" fill="freeze"/></text><text x="48" y="248.0" font-family="'SF Mono','Fira Code','JetBrains Mono',ui-monospace,Consolas,monospace" font-size="12.5" fill="url(#asciiGrad)" letter-spacing="0" opacity="0">     │▓▓░░▓█▓▓░░░░▓▓█▓░░▓▓│<animate attributeName="opacity" from="0" to="1" dur="0.45s" begin="0.87s" fill="freeze"/></text><text x="48" y="266.5" font-family="'SF Mono','Fira Code','JetBrains Mono',ui-monospace,Consolas,monospace" font-size="12.5" fill="url(#asciiGrad)" letter-spacing="0" opacity="0">     │▓▓░░▓▓░░░▓▓░░░▓▓░░▓▓│<animate attributeName="opacity" from="0" to="1" dur="0.45s" begin="1.00s" fill="freeze"/></text><text x="48" y="285.0" font-family="'SF Mono','Fira Code','JetBrains Mono',ui-monospace,Consolas,monospace" font-size="12.5" fill="url(#asciiGrad)" letter-spacing="0" opacity="0">     │▓▓░░░▓▓▓░░░▓▓▓░░░▓▓│<animate attributeName="opacity" from="0" to="1" dur="0.45s" begin="1.13s" fill="freeze"/></text><text x="48" y="303.5" font-family="'SF Mono','Fira Code','JetBrains Mono',ui-monospace,Consolas,monospace" font-size="12.5" fill="url(#asciiGrad)" letter-spacing="0" opacity="0">     │ ▓▓░░░▓▓▓▓▓▓▓░░░▓▓ │<animate attributeName="opacity" from="0" to="1" dur="0.45s" begin="1.26s" fill="freeze"/></text><text x="48" y="322.0" font-family="'SF Mono','Fira Code','JetBrains Mono',ui-monospace,Consolas,monospace" font-size="12.5" fill="url(#asciiGrad)" letter-spacing="0" opacity="0">     │  ▓▓▓░░░░░░░░░▓▓▓  │<animate attributeName="opacity" from="0" to="1" dur="0.45s" begin="1.39s" fill="freeze"/></text><text x="48" y="340.5" font-family="'SF Mono','Fira Code','JetBrains Mono',ui-monospace,Consolas,monospace" font-size="12.5" fill="url(#asciiGrad)" letter-spacing="0" opacity="0">     │   ▓▓▓▓▓▓▓▓▓▓▓▓▓   │<animate attributeName="opacity" from="0" to="1" dur="0.45s" begin="1.52s" fill="freeze"/></text><text x="48" y="359.0" font-family="'SF Mono','Fira Code','JetBrains Mono',ui-monospace,Consolas,monospace" font-size="12.5" fill="url(#asciiGrad)" letter-spacing="0" opacity="0">     └───────────────────┘<animate attributeName="opacity" from="0" to="1" dur="0.45s" begin="1.65s" fill="freeze"/></text><text x="48" y="396.0" font-family="'SF Mono','Fira Code','JetBrains Mono',ui-monospace,Consolas,monospace" font-size="12.5" fill="url(#asciiGrad)" letter-spacing="0" opacity="0">       &lt; off-art  /&gt;<animate attributeName="opacity" from="0" to="1" dur="0.45s" begin="1.91s" fill="freeze"/></text><text x="48" y="414.5" font-family="'SF Mono','Fira Code','JetBrains Mono',ui-monospace,Consolas,monospace" font-size="12.5" fill="url(#asciiGrad)" letter-spacing="0" opacity="0">      [ FRONTEND.DEV ]<animate attributeName="opacity" from="0" to="1" dur="0.45s" begin="2.04s" fill="freeze"/></text><text x="48" y="433.0" font-family="'SF Mono','Fira Code','JetBrains Mono',ui-monospace,Consolas,monospace" font-size="12.5" fill="url(#asciiGrad)" letter-spacing="0" opacity="0">     STATUS ● ONLINE<animate attributeName="opacity" from="0" to="1" dur="0.45s" begin="2.17s" fill="freeze"/></text><text x="48" y="451.5" font-family="'SF Mono','Fira Code','JetBrains Mono',ui-monospace,Consolas,monospace" font-size="12.5" fill="url(#asciiGrad)" letter-spacing="0" opacity="0">     UPTIME: 03:14:07<animate attributeName="opacity" from="0" to="1" dur="0.45s" begin="2.30s" fill="freeze"/></text></g><rect x="213" y="440.5" width="8" height="13" fill="#2563EB" opacity="0"><animate attributeName="opacity" values="0;1;1;0;0" keyTimes="0;0.05;0.5;0.55;1" dur="1s" begin="2.43s" repeatCount="indefinite"/></rect><g clip-path="url(#leftClip)"><rect x="24" y="24" width="408" height="2.5" fill="#2563EB" opacity="0.18"><animate attributeName="y" values="24;586;24" dur="4.5s" repeatCount="indefinite"/></rect></g><g filter="url(#glow)"><rect x="456" y="24" width="700" height="562" rx="20" fill="#F8FAFC" opacity="0.9" stroke="#E2E8F0" stroke-width="1"/></g><rect x="456" y="24" width="700" height="197" rx="20" fill="url(#glassSheen)"/><rect x="456" y="24" width="700" height="562" rx="20" fill="none" stroke="url(#borderGrad)" stroke-width="1.6"/><circle cx="482" cy="52" r="5" fill="#FF5F57" opacity="0.85"/><circle cx="500" cy="52" r="5" fill="#FEBC2E" opacity="0.85"/><circle cx="518" cy="52" r="5" fill="#28C840" opacity="0.85"/><text x="1138" y="56" text-anchor="end" font-family="'SF Mono','Fira Code','JetBrains Mono',ui-monospace,Consolas,monospace" font-size="11" fill="#475569">artem@off-art ~ %</text><line x1="472" y1="70" x2="1140" y2="70" stroke="#E2E8F0" stroke-width="1"/><text x="492" y="116" font-family="'Inter','Segoe UI',ui-sans-serif,-apple-system,sans-serif" font-size="30" font-weight="700" fill="#0F172A" opacity="0">Hi <tspan>👋</tspan><animate attributeName="opacity" from="0" to="1" dur="0.5s" begin="0.1s" fill="freeze"/></text><text x="492" y="154" font-family="'Inter','Segoe UI',ui-sans-serif,-apple-system,sans-serif" font-size="26" fill="#475569" opacity="0">I'm <tspan font-weight="700" fill="url(#accentGrad)">Artem</tspan><animate attributeName="opacity" from="0" to="1" dur="0.5s" begin="0.55s" fill="freeze"/></text><text x="492" y="196" font-family="'SF Mono','Fira Code','JetBrains Mono',ui-monospace,Consolas,monospace" font-size="20" fill="#06B6D4" opacity="0">&gt;<animate attributeName="opacity" from="0" to="1" dur="0.4s" begin="1.0s" fill="freeze"/></text><g clip-path="url(#typeClip0)"><text x="516" y="196" font-family="'SF Mono','Fira Code','JetBrains Mono',ui-monospace,Consolas,monospace" font-size="20" fill="#0F172A">Frontend Engineer</text></g><g clip-path="url(#typeClip1)"><text x="516" y="196" font-family="'SF Mono','Fira Code','JetBrains Mono',ui-monospace,Consolas,monospace" font-size="20" fill="#0F172A">Full Stack Developer</text></g><g clip-path="url(#typeClip2)"><text x="516" y="196" font-family="'SF Mono','Fira Code','JetBrains Mono',ui-monospace,Consolas,monospace" font-size="20" fill="#0F172A">Open Source Contributor</text></g><g clip-path="url(#typeClip3)"><text x="516" y="196" font-family="'SF Mono','Fira Code','JetBrains Mono',ui-monospace,Consolas,monospace" font-size="20" fill="#0F172A">UI Engineer</text></g><g clip-path="url(#typeClip4)"><text x="516" y="196" font-family="'SF Mono','Fira Code','JetBrains Mono',ui-monospace,Consolas,monospace" font-size="20" fill="#0F172A">AI Enthusiast</text></g><rect x="514" y="179" width="9" height="21" fill="#06B6D4" opacity="0.85"><animate attributeName="opacity" values="0.85;0.1;0.85" dur="0.9s" repeatCount="indefinite"/></rect><g transform="translate(494 238)" opacity="0"><animate attributeName="opacity" from="0" to="1" dur="0.45s" begin="1.40s" fill="freeze"/><animateTransform attributeName="transform" type="translate" values="482 238;494 238" dur="0.45s" begin="1.40s" fill="freeze"/><path d="M0,-8 C4.4,-8 8,-4.6 8,-0.4 C8,4.5 0,10 0,10 C0,10 -8,4.5 -8,-0.4 C-8,-4.6 -4.4,-8 0,-8 Z M0,-3 A2.6,2.6 0 1,0 0,2.2 A2.6,2.6 0 1,0 0,-3 Z" fill="none" stroke="url(#accentGrad)" stroke-width="1.6" stroke-linecap="round" stroke-linejoin="round"/><text x="20" y="4.5" font-family="'Inter','Segoe UI',ui-sans-serif,-apple-system,sans-serif" font-size="14.5" fill="#475569"><tspan font-weight="600" fill="#0F172A">Location:</tspan> Moscow, Russia</text></g><g transform="translate(494 266)" opacity="0"><animate attributeName="opacity" from="0" to="1" dur="0.45s" begin="1.68s" fill="freeze"/><animateTransform attributeName="transform" type="translate" values="482 266;494 266" dur="0.45s" begin="1.68s" fill="freeze"/><path d="M0,-9 A9,9 0 1,1 -0.01,-9 M0,-5 A5,5 0 1,1 -0.01,-5 M0,-1.6 A1.6,1.6 0 1,1 -0.01,-1.6" fill="none" stroke="url(#accentGrad)" stroke-width="1.6" stroke-linecap="round" stroke-linejoin="round"/><text x="20" y="4.5" font-family="'Inter','Segoe UI',ui-sans-serif,-apple-system,sans-serif" font-size="14.5" fill="#475569"><tspan font-weight="600" fill="#0F172A">Current Focus:</tspan> AI tooling for frontend engineering</text></g><g transform="translate(494 294)" opacity="0"><animate attributeName="opacity" from="0" to="1" dur="0.45s" begin="1.96s" fill="freeze"/><animateTransform attributeName="transform" type="translate" values="482 294;494 294" dur="0.45s" begin="1.96s" fill="freeze"/><path d="M-6,2 L-2,-2 M-6,2 A4,4 0 0,1 -2,-2 M-6,2 L-8.2,4.2 A4.2,4.2 0 0,0 -2,10.4 L1.2,7.2 A4,4 0 0,0 2,2 M6,-2 L2,2 M6,-2 A4,4 0 0,0 2,-6.2 L-1.2,-9.4 A4.2,4.2 0 0,0 -6.2,-3.2 L-2,2 A4,4 0 0,0 -6,-2" fill="none" stroke="url(#accentGrad)" stroke-width="1.6" stroke-linecap="round" stroke-linejoin="round"/><text x="20" y="4.5" font-family="'Inter','Segoe UI',ui-sans-serif,-apple-system,sans-serif" font-size="14.5" fill="#475569"><tspan font-weight="600" fill="#0F172A">Portfolio:</tspan> github.com/off-art</text></g><g transform="translate(494 322)" opacity="0"><animate attributeName="opacity" from="0" to="1" dur="0.45s" begin="2.24s" fill="freeze"/><animateTransform attributeName="transform" type="translate" values="482 322;494 322" dur="0.45s" begin="2.24s" fill="freeze"/><path d="M-9,-6 L9,-6 A1.5,1.5 0 0,1 10.5,-4.5 L10.5,4.5 A1.5,1.5 0 0,1 9,6 L-9,6 A1.5,1.5 0 0,1 -10.5,4.5 L-10.5,-4.5 A1.5,1.5 0 0,1 -9,-6 Z M-9.5,-5 L0,1.5 L9.5,-5" fill="none" stroke="url(#accentGrad)" stroke-width="1.6" stroke-linecap="round" stroke-linejoin="round"/><text x="20" y="4.5" font-family="'Inter','Segoe UI',ui-sans-serif,-apple-system,sans-serif" font-size="14.5" fill="#475569"><tspan font-weight="600" fill="#0F172A">Email:</tspan> krivonosov.job@gmail.com</text></g><g transform="translate(494 350)" opacity="0"><animate attributeName="opacity" from="0" to="1" dur="0.45s" begin="2.52s" fill="freeze"/><animateTransform attributeName="transform" type="translate" values="482 350;494 350" dur="0.45s" begin="2.52s" fill="freeze"/><path d="M-9.5,0.8 L8.7,-6.6 C9.4,-6.9 10,-6.4 9.7,-5.4 L6.7,7.8 C6.5,8.7 5.9,8.9 5.1,8.5 L0.6,5.1 L-1.5,7.1 C-1.8,7.4 -2,7.6 -2.5,7.6 L-2.1,3.3 L6.1,-4.2 C6.5,-4.5 6.1,-4.7 5.6,-4.4 L-4.3,1.9 L-8.6,0.6 C-9.5,0.3 -9.5,-0.3 -9.5,0.8 Z" fill="none" stroke="url(#accentGrad)" stroke-width="1.6" stroke-linecap="round" stroke-linejoin="round"/><text x="20" y="4.5" font-family="'Inter','Segoe UI',ui-sans-serif,-apple-system,sans-serif" font-size="14.5" fill="#475569"><tspan font-weight="600" fill="#0F172A">Telegram:</tspan> @off_artem</text></g><text x="492" y="394" font-family="'SF Mono','Fira Code','JetBrains Mono',ui-monospace,Consolas,monospace" font-size="13" fill="#475569" opacity="0">// stack<animate attributeName="opacity" from="0" to="1" dur="0.4s" begin="2.3s" fill="freeze"/></text><g transform="translate(492 410)" opacity="0"><animate attributeName="opacity" from="0" to="1" dur="0.4s" begin="2.40s" fill="freeze"/><rect x="0" y="0" width="71.0" height="25" rx="15" fill="rgba(15,23,42,.03)" stroke="rgba(15,23,42,.10)" stroke-width="1"/><rect x="0" y="0" width="71.0" height="25" rx="15" fill="url(#pillGlow)" opacity="0.55"><animate attributeName="opacity" values="0.25;0.6;0.25" dur="3.0s" begin="-0.0s" repeatCount="indefinite"/></rect><text x="35.5" y="17.0" text-anchor="middle" font-family="'Inter','Segoe UI',ui-sans-serif,-apple-system,sans-serif" font-size="13" font-weight="600" fill="#0F172A">React</text></g><g transform="translate(573.0 410)" opacity="0"><animate attributeName="opacity" from="0" to="1" dur="0.4s" begin="2.47s" fill="freeze"/><rect x="0" y="0" width="87.4" height="25" rx="15" fill="rgba(15,23,42,.03)" stroke="rgba(15,23,42,.10)" stroke-width="1"/><rect x="0" y="0" width="87.4" height="25" rx="15" fill="url(#pillGlow)" opacity="0.55"><animate attributeName="opacity" values="0.25;0.6;0.25" dur="3.6s" begin="-0.4s" repeatCount="indefinite"/></rect><text x="43.7" y="17.0" text-anchor="middle" font-family="'Inter','Segoe UI',ui-sans-serif,-apple-system,sans-serif" font-size="13" font-weight="600" fill="#0F172A">Next.js</text></g><g transform="translate(670.4 410)" opacity="0"><animate attributeName="opacity" from="0" to="1" dur="0.4s" begin="2.54s" fill="freeze"/><rect x="0" y="0" width="112.0" height="25" rx="15" fill="rgba(15,23,42,.03)" stroke="rgba(15,23,42,.10)" stroke-width="1"/><rect x="0" y="0" width="112.0" height="25" rx="15" fill="url(#pillGlow)" opacity="0.55"><animate attributeName="opacity" values="0.25;0.6;0.25" dur="4.2s" begin="-0.8s" repeatCount="indefinite"/></rect><text x="56.0" y="17.0" text-anchor="middle" font-family="'Inter','Segoe UI',ui-sans-serif,-apple-system,sans-serif" font-size="13" font-weight="600" fill="#0F172A">TypeScript</text></g><g transform="translate(792.4 410)" opacity="0"><animate attributeName="opacity" from="0" to="1" dur="0.4s" begin="2.61s" fill="freeze"/><rect x="0" y="0" width="62.8" height="25" rx="15" fill="rgba(15,23,42,.03)" stroke="rgba(15,23,42,.10)" stroke-width="1"/><rect x="0" y="0" width="62.8" height="25" rx="15" fill="url(#pillGlow)" opacity="0.55"><animate attributeName="opacity" values="0.25;0.6;0.25" dur="4.8s" begin="-1.2s" repeatCount="indefinite"/></rect><text x="31.4" y="17.0" text-anchor="middle" font-family="'Inter','Segoe UI',ui-sans-serif,-apple-system,sans-serif" font-size="13" font-weight="600" fill="#0F172A">Vite</text></g><g transform="translate(865.1999999999999 410)" opacity="0"><animate attributeName="opacity" from="0" to="1" dur="0.4s" begin="2.68s" fill="freeze"/><rect x="0" y="0" width="120.2" height="25" rx="15" fill="rgba(15,23,42,.03)" stroke="rgba(15,23,42,.10)" stroke-width="1"/><rect x="0" y="0" width="120.2" height="25" rx="15" fill="url(#pillGlow)" opacity="0.55"><animate attributeName="opacity" values="0.25;0.6;0.25" dur="3.0s" begin="-1.6s" repeatCount="indefinite"/></rect><text x="60.1" y="17.0" text-anchor="middle" font-family="'Inter','Segoe UI',ui-sans-serif,-apple-system,sans-serif" font-size="13" font-weight="600" fill="#0F172A">TailwindCSS</text></g><g transform="translate(995.3999999999999 410)" opacity="0"><animate attributeName="opacity" from="0" to="1" dur="0.4s" begin="2.75s" fill="freeze"/><rect x="0" y="0" width="71.0" height="25" rx="15" fill="rgba(15,23,42,.03)" stroke="rgba(15,23,42,.10)" stroke-width="1"/><rect x="0" y="0" width="71.0" height="25" rx="15" fill="url(#pillGlow)" opacity="0.55"><animate attributeName="opacity" values="0.25;0.6;0.25" dur="3.6s" begin="-2.0s" repeatCount="indefinite"/></rect><text x="35.5" y="17.0" text-anchor="middle" font-family="'Inter','Segoe UI',ui-sans-serif,-apple-system,sans-serif" font-size="13" font-weight="600" fill="#0F172A">Redux</text></g><g transform="translate(492 443)" opacity="0"><animate attributeName="opacity" from="0" to="1" dur="0.4s" begin="2.82s" fill="freeze"/><rect x="0" y="0" width="87.4" height="25" rx="15" fill="rgba(15,23,42,.03)" stroke="rgba(15,23,42,.10)" stroke-width="1"/><rect x="0" y="0" width="87.4" height="25" rx="15" fill="url(#pillGlow)" opacity="0.55"><animate attributeName="opacity" values="0.25;0.6;0.25" dur="4.2s" begin="-2.4s" repeatCount="indefinite"/></rect><text x="43.7" y="17.0" text-anchor="middle" font-family="'Inter','Segoe UI',ui-sans-serif,-apple-system,sans-serif" font-size="13" font-weight="600" fill="#0F172A">Node.js</text></g><g transform="translate(589.4 443)" opacity="0"><animate attributeName="opacity" from="0" to="1" dur="0.4s" begin="2.89s" fill="freeze"/><rect x="0" y="0" width="87.4" height="25" rx="15" fill="rgba(15,23,42,.03)" stroke="rgba(15,23,42,.10)" stroke-width="1"/><rect x="0" y="0" width="87.4" height="25" rx="15" fill="url(#pillGlow)" opacity="0.55"><animate attributeName="opacity" values="0.25;0.6;0.25" dur="4.8s" begin="-2.8s" repeatCount="indefinite"/></rect><text x="43.7" y="17.0" text-anchor="middle" font-family="'Inter','Segoe UI',ui-sans-serif,-apple-system,sans-serif" font-size="13" font-weight="600" fill="#0F172A">GraphQL</text></g><g transform="translate(686.8 443)" opacity="0"><animate attributeName="opacity" from="0" to="1" dur="0.4s" begin="2.96s" fill="freeze"/><rect x="0" y="0" width="112.0" height="25" rx="15" fill="rgba(15,23,42,.03)" stroke="rgba(15,23,42,.10)" stroke-width="1"/><rect x="0" y="0" width="112.0" height="25" rx="15" fill="url(#pillGlow)" opacity="0.55"><animate attributeName="opacity" values="0.25;0.6;0.25" dur="3.0s" begin="-3.2s" repeatCount="indefinite"/></rect><text x="56.0" y="17.0" text-anchor="middle" font-family="'Inter','Segoe UI',ui-sans-serif,-apple-system,sans-serif" font-size="13" font-weight="600" fill="#0F172A">OpenAI API</text></g><g transform="translate(808.8 443)" opacity="0"><animate attributeName="opacity" from="0" to="1" dur="0.4s" begin="3.03s" fill="freeze"/><rect x="0" y="0" width="103.8" height="25" rx="15" fill="rgba(15,23,42,.03)" stroke="rgba(15,23,42,.10)" stroke-width="1"/><rect x="0" y="0" width="103.8" height="25" rx="15" fill="url(#pillGlow)" opacity="0.55"><animate attributeName="opacity" values="0.25;0.6;0.25" dur="3.6s" begin="-3.6s" repeatCount="indefinite"/></rect><text x="51.9" y="17.0" text-anchor="middle" font-family="'Inter','Segoe UI',ui-sans-serif,-apple-system,sans-serif" font-size="13" font-weight="600" fill="#0F172A">LangChain</text></g><g transform="translate(922.5999999999999 443)" opacity="0"><animate attributeName="opacity" from="0" to="1" dur="0.4s" begin="3.10s" fill="freeze"/><rect x="0" y="0" width="120.2" height="25" rx="15" fill="rgba(15,23,42,.03)" stroke="rgba(15,23,42,.10)" stroke-width="1"/><rect x="0" y="0" width="120.2" height="25" rx="15" fill="url(#pillGlow)" opacity="0.55"><animate attributeName="opacity" values="0.25;0.6;0.25" dur="4.2s" begin="-4.0s" repeatCount="indefinite"/></rect><text x="60.1" y="17.0" text-anchor="middle" font-family="'Inter','Segoe UI',ui-sans-serif,-apple-system,sans-serif" font-size="13" font-weight="600" fill="#0F172A">Claude Code</text></g><g transform="translate(492 476)" opacity="0"><animate attributeName="opacity" from="0" to="1" dur="0.4s" begin="3.17s" fill="freeze"/><rect x="0" y="0" width="54.6" height="25" rx="15" fill="rgba(15,23,42,.03)" stroke="rgba(15,23,42,.10)" stroke-width="1"/><rect x="0" y="0" width="54.6" height="25" rx="15" fill="url(#pillGlow)" opacity="0.55"><animate attributeName="opacity" values="0.25;0.6;0.25" dur="4.8s" begin="-4.4s" repeatCount="indefinite"/></rect><text x="27.3" y="17.0" text-anchor="middle" font-family="'Inter','Segoe UI',ui-sans-serif,-apple-system,sans-serif" font-size="13" font-weight="600" fill="#0F172A">RAG</text></g><line x1="492" y1="516" x2="1124" y2="516" stroke="#E2E8F0" stroke-width="1"/><a xlink:href="https://github.com/off-art" target="_blank"><g transform="translate(492 540)" filter="url(#tinyGlow)"><circle cx="12" cy="11" r="21" fill="rgba(15,23,42,.03)" stroke="rgba(15,23,42,.10)" stroke-width="1"/><path d="M12,0.3 C5.7,0.3 0.6,5.4 0.6,11.8 C0.6,16.9 3.9,21.2 8.5,22.7 C9.1,22.8 9.3,22.5 9.3,22.1 C9.3,21.8 9.3,21 9.2,19.9 C6,20.6 5.3,18.4 5.3,18.4 C4.8,17.1 4,16.7 4,16.7 C2.9,16 4.1,16 4.1,16 C5.3,16.1 5.9,17.2 5.9,17.2 C7,19 8.8,18.5 9.4,18.2 C9.5,17.4 9.8,16.9 10.2,16.6 C7.7,16.3 5.1,15.3 5.1,11 C5.1,9.8 5.5,8.8 6.2,8 C6.1,7.8 5.7,6.6 6.3,5 C6.3,5 7.3,4.7 9.2,6 C10,5.8 10.8,5.7 11.6,5.7 C12.4,5.7 13.2,5.8 14,6 C15.9,4.7 16.9,5 16.9,5 C17.5,6.6 17.1,7.8 17,8 C17.7,8.8 18.1,9.8 18.1,11 C18.1,15.3 15.5,16.3 13,16.6 C13.4,17 13.8,17.7 13.8,18.9 C13.8,20.5 13.8,21.7 13.8,22.1 C13.8,22.5 14,22.8 14.6,22.7 C19.2,21.1 22.5,16.9 22.5,11.8 C22.5,5.4 17.4,0.3 12,0.3 Z" fill="#0F172A"/><animateTransform attributeName="transform" type="translate" additive="sum" values="0 0;0 -3;0 0" dur="3.4s" repeatCount="indefinite"/></g><text x="526" y="556" font-family="'Inter','Segoe UI',ui-sans-serif,-apple-system,sans-serif" font-size="14" font-weight="600" fill="#475569">github.com/off-art</text></a><a xlink:href="https://t.me/off_artem" target="_blank"><g transform="translate(722 540)" filter="url(#tinyGlow)"><circle cx="12" cy="11" r="21" fill="rgba(15,23,42,.03)" stroke="rgba(15,23,42,.10)" stroke-width="1"/><g transform="translate(12 11)"><path d="M-9.5,0.8 L8.7,-6.6 C9.4,-6.9 10,-6.4 9.7,-5.4 L6.7,7.8 C6.5,8.7 5.9,8.9 5.1,8.5 L0.6,5.1 L-1.5,7.1 C-1.8,7.4 -2,7.6 -2.5,7.6 L-2.1,3.3 L6.1,-4.2 C6.5,-4.5 6.1,-4.7 5.6,-4.4 L-4.3,1.9 L-8.6,0.6 C-9.5,0.3 -9.5,-0.3 -9.5,0.8 Z" fill="#06B6D4"/></g><animateTransform attributeName="transform" type="translate" additive="sum" values="0 0;0 -3;0 0" dur="3.4s" begin="-1.2s" repeatCount="indefinite"/></g><text x="756" y="556" font-family="'Inter','Segoe UI',ui-sans-serif,-apple-system,sans-serif" font-size="14" font-weight="600" fill="#475569">@off_artem</text></a><text x="1124" y="556" text-anchor="end" font-family="'SF Mono','Fira Code','JetBrains Mono',ui-monospace,Consolas,monospace" font-size="12" fill="#10B981">● open to work</text></g></svg>