<?xml version="1.0" encoding="UTF-8" standalone="no"?>
<!DOCTYPE svg PUBLIC "-//W3C//DTD SVG 1.1//EN" "http://www.w3.org/Graphics/SVG/1.1/DTD/svg11.dtd">
<svg width="100%" height="100%" viewBox="0 0 2500 2500" version="1.1" xmlns="http://www.w3.org/2000/svg" xmlns:xlink="http://www.w3.org/1999/xlink" xml:space="preserve" xmlns:serif="http://www.serif.com/" style="fill-rule:evenodd;clip-rule:evenodd;stroke-linejoin:round;stroke-miterlimit:2;">
    <g transform="matrix(1,0,0,1,0,215)">
        <path d="M0.189,319.21L584.573,319.21L584.573,491.088L0.189,491.088L0.189,319.21ZM0.189,0L584.573,0L584.573,171.878L0.189,171.878L0.189,0ZM1048.66,635.959L0.189,635.959L0.189,807.837L1009.37,807.837C1119.86,807.837 1377.68,810.288 1473.44,964.981L1473.44,869.224C1426.79,716.982 1289.29,635.959 1048.65,635.959L1048.66,635.959ZM1051.11,955.159L0.189,955.159L0.189,1127.04L1009.37,1127.04C1254.91,1127.04 1409.61,1136.86 1473.44,1171.24L1473.44,1095.12C1424.33,974.804 1218.08,955.159 1051.11,955.159ZM1048.66,1765.45L0.189,1765.45L0.189,1593.57L1009.37,1593.57C1119.86,1593.57 1377.68,1591.12 1473.44,1436.42L1473.44,1532.18C1426.79,1684.42 1289.29,1765.45 1048.65,1765.45L1048.66,1765.45ZM1051.11,1446.25L0.189,1446.25L0.189,1274.37L1009.37,1274.37C1254.91,1274.37 1409.61,1264.55 1473.44,1230.17L1473.44,1306.29C1424.33,1426.6 1218.08,1446.25 1051.11,1446.25ZM1728.81,2062.56L2499.81,2062.56L2499.81,1956.97L1750.9,1956.97C1684.6,1956.97 1527.47,1954.52 1470.99,1863.66L1470.99,1922.6C1498,2013.45 1581.48,2062.56 1728.81,2062.56ZM1726.34,1868.58L2497.36,1868.58L2497.36,1763L1750.9,1763C1601.12,1763 1507.81,1758.08 1470.98,1735.99L1470.98,1782.64C1500.44,1856.3 1625.67,1868.58 1726.34,1868.58Z" style="fill:rgb(1,1,1);fill-rule:nonzero;"/>
    </g>
</svg>
