<?xml version="1.0" encoding="UTF-8" standalone="no"?>
<!DOCTYPE svg PUBLIC "-//W3C//DTD SVG 1.1//EN" "http://www.w3.org/Graphics/SVG/1.1/DTD/svg11.dtd">
<svg width="100%" height="100%" viewBox="0 0 596 596" version="1.1" xmlns="http://www.w3.org/2000/svg" xmlns:xlink="http://www.w3.org/1999/xlink" xml:space="preserve" xmlns:serif="http://www.serif.com/" style="fill-rule:evenodd;clip-rule:evenodd;stroke-linejoin:round;stroke-miterlimit:2;">
    <g transform="matrix(1,0,0,1,-123.3,0)">
        <g transform="matrix(1.78523,0,0,1.78523,112.016,29.8749)">
            <path d="M134.44,120.34C119.13,52.8 87.22,34.82 79.08,22.11C75.723,16.511 72.75,10.691 70.18,4.69C69.75,10.69 68.96,14.47 63.86,19.02C53.62,28.15 10.13,63.59 6.47,140.33C3.06,211.88 59.07,256 66.47,260.56C72.16,263.36 79.09,260.62 82.47,258.05C109.47,239.52 146.36,190.12 134.47,120.34" style="fill:rgb(16,170,80);fill-rule:nonzero;"/>
        </g>
        <g transform="matrix(1.78523,0,0,1.78523,112.016,29.8749)">
            <path d="M72.5,222.46C71.09,240.17 70.08,250.46 66.5,260.58C66.5,260.58 68.85,277.44 70.5,295.3L76.34,295.3C77.733,282.723 79.86,270.239 82.71,257.91C75.15,254.19 72.79,238 72.5,222.46Z" style="fill:rgb(184,196,194);fill-rule:nonzero;"/>
        </g>
        <g transform="matrix(1.78523,0,0,1.78523,112.016,29.8749)">
            <path d="M82.7,257.92C75.06,254.39 72.85,237.86 72.51,222.46C74.399,197.057 74.95,171.571 74.16,146.11C73.76,132.75 74.35,22.37 70.87,6.21C73.251,11.683 75.993,16.992 79.08,22.1C87.22,34.82 119.14,52.8 134.44,120.34C146.36,190 109.67,239.27 82.7,257.92Z" style="fill:rgb(18,146,79);fill-rule:nonzero;"/>
        </g>
        <g transform="matrix(1.78523,0,0,1.78523,112.016,29.8749)">
            <path d="M181.75,233.5C181.2,232.148 180.977,230.685 181.1,229.23C181.052,228.239 181.277,227.253 181.75,226.38C184.513,225.982 187.251,225.424 189.95,224.71C193.73,223.77 195.15,221.71 195.37,216.89C195.99,205.5 196.03,184.13 195.81,169.11L195.81,168.67C195.81,167.05 195.81,164.85 193.81,163.3C190.295,161.095 186.478,159.41 182.48,158.3C180.69,157.77 179.7,156.83 179.75,155.73C179.8,154.63 180.93,153.33 183.26,152.87C189.45,152.24 205.67,148.37 212.04,145.43C212.696,146.285 213,147.359 212.89,148.43C212.89,149.09 212.79,149.79 212.72,150.51C212.54,152.63 212.34,155.04 212.34,157.44C212.445,158.221 213.118,158.81 213.906,158.81C214.323,158.81 214.724,158.644 215.02,158.35C227.15,148.84 238.02,145.45 243.59,145.45C252.76,145.45 259.9,149.83 265.43,158.85C265.688,159.292 266.158,159.569 266.67,159.58C267.134,159.576 267.568,159.344 267.83,158.96C278.98,150.5 290.03,145.45 297.43,145.45C314.91,145.45 325.36,158.54 325.36,180.45C325.36,186.75 325.3,194.74 325.24,202.19C325.19,208.73 325.14,214.86 325.14,219.1C325.14,220.1 326.52,222.98 328.59,223.55C331.15,224.8 334.84,225.44 339.51,226.24L339.69,226.24C340.04,227.5 339.3,232.39 338.59,233.39C337.43,233.39 335.83,233.29 333.83,233.19C330.2,233.01 325.22,232.76 319.43,232.76C307.81,232.76 301.74,232.98 295.94,233.36C295.5,231.91 295.35,227.23 295.88,226.25C298.282,225.874 300.659,225.357 303,224.7C306.7,223.48 307.77,221.8 308,216.89C308.09,213.4 308.76,182.65 307.57,175.35C306.47,167.78 300.77,158.92 288.3,158.92C283.67,158.92 276.2,160.85 269.08,166.25C268.638,166.75 268.39,167.393 268.38,168.06L268.38,168.21C269.22,172.15 269.22,176.75 269.22,183.7C269.22,187.7 269.22,191.87 269.17,196.04C269.12,204.52 269.08,212.52 269.22,218.57C269.22,222.69 271.71,223.68 273.72,224.47C274.81,224.71 275.67,224.92 276.54,225.12C278.21,225.53 279.95,225.95 282.54,226.36C282.923,228.117 282.889,229.939 282.44,231.68C282.334,232.333 282.077,232.953 281.69,233.49C275.23,233.27 268.6,233.08 259.03,233.08C256.13,233.08 251.4,233.2 247.22,233.31C243.83,233.4 240.63,233.49 238.81,233.5C238.318,232.339 238.099,231.079 238.17,229.82C238.068,228.633 238.3,227.442 238.84,226.38L241.41,225.91C243.65,225.51 245.59,225.17 247.41,224.71C250.57,223.71 251.76,221.99 251.99,217.96C252.61,208.56 253.09,181.47 251.76,174.69C249.5,163.81 243.31,158.29 233.35,158.29C227.52,158.29 220.15,161.1 214.13,165.61C212.96,166.749 212.318,168.327 212.36,169.96L212.36,181.15C212.36,194.75 212.27,211.68 212.6,219C212.8,221.26 213.6,223.94 217.83,224.92C218.76,225.19 220.36,225.45 222.22,225.76C223.29,225.94 224.46,226.13 225.67,226.35C226.055,228.744 225.859,231.197 225.1,233.5C223.24,233.5 220.95,233.38 218.33,233.27C214.33,233.09 209.33,232.87 203.68,232.87C197,232.87 192.35,233.09 188.62,233.27C186.11,233.39 183.94,233.49 181.77,233.5" style="fill:rgb(33,49,60);fill-rule:nonzero;"/>
        </g>
    </g>
</svg>
