<?xml version="1.0" encoding="UTF-8" standalone="no"?><!DOCTYPE svg PUBLIC "-//W3C//DTD SVG 1.1//EN" "http://www.w3.org/Graphics/SVG/1.1/DTD/svg11.dtd"><svg width="100%" height="100%" viewBox="0 0 145 145" version="1.1" xmlns="http://www.w3.org/2000/svg" xmlns:xlink="http://www.w3.org/1999/xlink" xml:space="preserve" xmlns:serif="http://www.serif.com/" style="fill-rule:evenodd;clip-rule:evenodd;stroke-linejoin:round;stroke-miterlimit:2;"><g><path d="M72.525,145c-1.942,0 -3.87,-0.509 -5.572,-1.49l-17.738,-10.501c-2.65,-1.482 -1.357,-2.006 -0.483,-2.308c3.532,-1.237 4.249,-1.516 8.02,-3.657c0.396,-0.226 0.915,-0.146 1.32,0.093l13.627,8.086c0.492,0.266 1.191,0.266 1.647,0l53.133,-30.669c0.492,-0.28 0.811,-0.851 0.811,-1.437l0,-61.312c0,-0.612 -0.319,-1.157 -0.822,-1.463l-53.111,-30.643c-0.493,-0.293 -1.144,-0.293 -1.636,0l-53.101,30.643c-0.515,0.292 -0.842,0.864 -0.842,1.45l0,61.312c0,0.585 0.319,1.144 0.824,1.423l14.55,8.406c7.9,3.95 12.728,-0.705 12.728,-5.387l0,-60.514c0,-0.865 0.679,-1.53 1.543,-1.53l6.73,0c0.838,0 1.529,0.665 1.529,1.53l0,60.541c0,10.533 -5.745,16.585 -15.733,16.585c-3.073,0 -5.493,0 -12.25,-3.325l-13.938,-8.033c-3.445,-1.995 -5.573,-5.719 -5.573,-9.696l0,-61.312c0,-3.99 2.128,-7.714 5.573,-9.683l53.186,-30.683c3.365,-1.901 7.834,-1.901 11.172,0l53.12,30.697c3.431,1.981 5.573,5.692 5.573,9.682l0,61.312c0,3.977 -2.142,7.688 -5.573,9.683l-53.12,30.682c-1.702,0.985 -3.631,1.49 -5.599,1.49" style="fill:#689f63;fill-rule:nonzero;"/><path d="M88.937,102.752c-23.248,0 -28.122,-10.672 -28.122,-19.623c0,-0.851 0.686,-1.53 1.539,-1.53l6.862,0c0.758,0 1.397,0.552 1.516,1.301c1.038,6.993 4.123,10.52 18.181,10.52c11.199,0 15.96,-2.529 15.96,-8.468c0,-3.418 -1.356,-5.958 -18.753,-7.66c-14.55,-1.437 -23.54,-4.642 -23.54,-16.279c0,-10.72 9.044,-17.104 24.192,-17.104c17.011,0 25.443,5.905 26.507,18.593c0.04,0.439 -0.12,0.865 -0.413,1.184c-0.292,0.306 -0.704,0.492 -1.13,0.492l-6.903,0c-0.718,0 -1.343,-0.505 -1.489,-1.197c-1.663,-7.355 -5.679,-9.709 -16.598,-9.709c-12.223,0 -13.646,4.256 -13.646,7.448c0,3.87 1.676,5.001 18.167,7.182c16.333,2.168 24.087,5.227 24.087,16.705c0,11.57 -9.656,18.207 -26.494,18.207" style="fill:#689f63;fill-rule:nonzero;"/></g></svg>