<?xml version="1.0" encoding="UTF-8" standalone="no"?><!DOCTYPE svg PUBLIC "-//W3C//DTD SVG 1.1//EN" "http://www.w3.org/Graphics/SVG/1.1/DTD/svg11.dtd"><svg width="100%" height="100%" viewBox="0 0 112 112" version="1.1" xmlns="http://www.w3.org/2000/svg" xmlns:xlink="http://www.w3.org/1999/xlink" xml:space="preserve" xmlns:serif="http://www.serif.com/" style="fill-rule:evenodd;clip-rule:evenodd;stroke-linejoin:round;stroke-miterlimit:2;"><path id="back" d="M96.656,14.813c-10.4,-14.88 -30.94,-19.29 -45.79,-9.83l-26.08,16.62c-7.114,4.468 -12.025,11.734 -13.52,20c-1.247,6.903 -0.155,14.027 3.1,20.24c-2.231,3.386 -3.752,7.189 -4.47,11.18c-1.504,8.443 0.462,17.145 5.45,24.12c10.4,14.88 30.94,19.29 45.79,9.83l26.08,-16.55c7.105,-4.477 12.014,-11.738 13.52,-20c1.242,-6.9 0.148,-14.021 -3.11,-20.23c2.231,-3.387 3.755,-7.19 4.48,-11.18c1.5,-8.442 -0.466,-17.142 -5.45,-24.12" style="fill:#ff3e00;fill-rule:nonzero;"/><path id="front" d="M48.316,98.583c-8.39,2.177 -17.299,-1.128 -22.24,-8.25c-2.998,-4.194 -4.177,-9.425 -3.27,-14.5c0.148,-0.817 0.355,-1.623 0.62,-2.41l0.49,-1.5l1.34,1c3.08,2.249 6.519,3.96 10.17,5.06l1,0.29l-0.09,1c-0.096,1.371 0.29,2.733 1.09,3.85c1.491,2.143 4.174,3.136 6.7,2.48c0.566,-0.152 1.105,-0.388 1.6,-0.7l26.04,-16.62c1.293,-0.813 2.183,-2.136 2.45,-3.64c0.269,-1.531 -0.091,-3.108 -1,-4.37c-1.491,-2.142 -4.173,-3.135 -6.7,-2.48c-0.566,0.15 -1.105,0.386 -1.6,0.7l-10,6.35c-1.635,1.037 -3.419,1.82 -5.29,2.32c-8.376,2.164 -17.264,-1.135 -22.2,-8.24c-2.988,-4.197 -4.161,-9.428 -3.25,-14.5c0.893,-4.982 3.846,-9.364 8.13,-12.06l26.12,-16.62c1.626,-1.035 3.4,-1.817 5.26,-2.32c8.388,-2.178 17.295,1.127 22.23,8.25c3.001,4.192 4.185,9.424 3.28,14.5c-0.156,0.822 -0.363,1.634 -0.62,2.43l-0.5,1.5l-1.33,-1c-3.086,-2.266 -6.535,-3.99 -10.2,-5.1l-1,-0.29l0.09,-1c0.116,-1.377 -0.26,-2.752 -1.06,-3.88c-1.5,-2.105 -4.16,-3.068 -6.66,-2.41c-0.566,0.15 -1.105,0.386 -1.6,0.7l-26.09,16.59c-1.288,0.814 -2.177,2.132 -2.45,3.63c-0.264,1.535 0.096,3.112 1,4.38c1.484,2.123 4.139,3.113 6.65,2.48c0.565,-0.154 1.104,-0.39 1.6,-0.7l10,-6.34c1.634,-1.048 3.423,-1.834 5.3,-2.33c8.385,-2.184 17.294,1.119 22.23,8.24c2.999,4.193 4.183,9.424 3.28,14.5c-0.892,4.982 -3.846,9.364 -8.13,12.06l-26.09,16.62c-1.638,1.041 -3.425,1.826 -5.3,2.33" style="fill:#fff;fill-rule:nonzero;"/></svg>